<svg width="100%" height="100%" viewBox="0 0 555 92" version="1.1" xmlns="http://www.w3.org/2000/svg" xmlns:xlink="http://www.w3.org/1999/xlink" style="fill-rule:evenodd;clip-rule:evenodd;stroke-linejoin:round;stroke-miterlimit:2;">
    <g transform="matrix(1,0,0,1,-1080.07,-254.411)">
        <g transform="matrix(1,0,0,1,932,0)">
            <g transform="matrix(0.260518,0,0,0.260518,93.8676,221.844)">
                <g transform="matrix(4.16667,0,0,4.16667,-2100,-1009.06)">
                    <path d="M595.936,272.176C572.778,272.176 553.938,291.017 553.938,314.174C553.938,337.332 572.778,356.172 595.936,356.172L613.997,356.172L613.997,339.237L595.936,339.237C582.116,339.237 570.874,327.994 570.874,314.174C570.874,300.354 582.116,289.112 595.936,289.112L629.127,289.112L629.127,324.943L646.062,324.943L646.062,272.176L595.936,272.176Z" style="fill:rgb(3,189,91);"/>
                </g>
                <g transform="matrix(4.16667,0,0,4.16667,-2100,-1009.06)">
                    <rect x="629.127" y="339.237" width="16.935" height="16.935" style="fill:rgb(3,189,91);"/>
                </g>
            </g>
        </g>
        <g transform="matrix(1,0,0,1,932,0)">
            <g transform="matrix(1,0,0,1,-40.376,24.8253)">
                <g transform="matrix(66.6667,0,0,66.6667,312.609,279.13)">
                    <path d="M0.656,-0.541C0.623,-0.569 0.588,-0.59 0.552,-0.604C0.515,-0.618 0.476,-0.625 0.436,-0.625C0.358,-0.625 0.294,-0.6 0.245,-0.55C0.196,-0.5 0.172,-0.435 0.172,-0.355C0.172,-0.278 0.196,-0.214 0.243,-0.164C0.291,-0.114 0.351,-0.089 0.424,-0.089C0.466,-0.089 0.506,-0.096 0.545,-0.111C0.583,-0.126 0.62,-0.149 0.655,-0.179L0.655,-0.048C0.624,-0.025 0.59,-0.009 0.553,0.002C0.516,0.014 0.476,0.019 0.433,0.019C0.378,0.019 0.328,0.01 0.281,-0.008C0.235,-0.026 0.194,-0.052 0.159,-0.087C0.124,-0.121 0.098,-0.161 0.079,-0.208C0.06,-0.254 0.051,-0.304 0.051,-0.356C0.051,-0.408 0.06,-0.458 0.079,-0.504C0.098,-0.55 0.125,-0.59 0.16,-0.625C0.196,-0.66 0.236,-0.687 0.282,-0.705C0.328,-0.723 0.378,-0.732 0.431,-0.732C0.473,-0.732 0.513,-0.726 0.551,-0.714C0.589,-0.701 0.626,-0.683 0.662,-0.658L0.656,-0.541Z" style="fill:white;fill-rule:nonzero;"/>
                </g>
                <g transform="matrix(66.6667,0,0,66.6667,360.46,279.13)">
                    <path d="M0.694,-0.356C0.694,-0.392 0.687,-0.426 0.674,-0.459C0.661,-0.492 0.642,-0.521 0.617,-0.546C0.593,-0.571 0.565,-0.59 0.533,-0.604C0.502,-0.617 0.468,-0.624 0.433,-0.624C0.398,-0.624 0.365,-0.617 0.333,-0.604C0.301,-0.591 0.273,-0.571 0.248,-0.546C0.223,-0.521 0.204,-0.492 0.191,-0.459C0.178,-0.427 0.172,-0.392 0.172,-0.356C0.172,-0.32 0.178,-0.286 0.191,-0.253C0.204,-0.221 0.223,-0.192 0.248,-0.167C0.273,-0.142 0.301,-0.122 0.333,-0.109C0.364,-0.096 0.398,-0.089 0.433,-0.089C0.468,-0.089 0.501,-0.096 0.532,-0.109C0.564,-0.122 0.592,-0.142 0.617,-0.167C0.642,-0.192 0.661,-0.221 0.674,-0.254C0.687,-0.286 0.694,-0.32 0.694,-0.356ZM0.815,-0.356C0.815,-0.305 0.805,-0.257 0.786,-0.212C0.767,-0.167 0.74,-0.126 0.703,-0.091C0.666,-0.055 0.625,-0.028 0.579,-0.009C0.532,0.01 0.484,0.019 0.433,0.019C0.382,0.019 0.333,0.01 0.286,-0.01C0.239,-0.029 0.198,-0.056 0.162,-0.091C0.126,-0.126 0.098,-0.167 0.079,-0.211C0.06,-0.256 0.051,-0.305 0.051,-0.356C0.051,-0.407 0.06,-0.455 0.079,-0.5C0.098,-0.546 0.126,-0.586 0.162,-0.622C0.199,-0.658 0.24,-0.685 0.286,-0.703C0.332,-0.722 0.381,-0.731 0.433,-0.731C0.485,-0.731 0.533,-0.722 0.579,-0.703C0.625,-0.685 0.667,-0.658 0.703,-0.622C0.74,-0.586 0.767,-0.545 0.786,-0.5C0.805,-0.454 0.815,-0.406 0.815,-0.356Z" style="fill:white;fill-rule:nonzero;"/>
                </g>
                <g transform="matrix(66.6667,0,0,66.6667,418.208,279.13)">
                    <path d="M0.082,-0L0.082,-0.743L0.536,-0.306C0.549,-0.294 0.561,-0.281 0.574,-0.267C0.586,-0.253 0.6,-0.237 0.614,-0.219L0.614,-0.715L0.721,-0.715L0.721,0.028L0.258,-0.417C0.245,-0.429 0.233,-0.442 0.222,-0.455C0.21,-0.468 0.199,-0.482 0.189,-0.497L0.189,-0L0.082,-0Z" style="fill:white;fill-rule:nonzero;"/>
                </g>
                <g transform="matrix(66.6667,0,0,66.6667,471.756,279.13)">
                    <path d="M0.041,-0.143L0.134,-0.186C0.143,-0.154 0.159,-0.13 0.182,-0.113C0.206,-0.096 0.236,-0.088 0.272,-0.088C0.306,-0.088 0.334,-0.097 0.354,-0.117C0.375,-0.136 0.385,-0.162 0.385,-0.194C0.385,-0.236 0.35,-0.273 0.28,-0.306C0.271,-0.311 0.263,-0.315 0.258,-0.317C0.179,-0.355 0.127,-0.39 0.1,-0.421C0.074,-0.452 0.061,-0.49 0.061,-0.535C0.061,-0.593 0.081,-0.641 0.12,-0.677C0.16,-0.713 0.212,-0.731 0.276,-0.731C0.329,-0.731 0.373,-0.721 0.408,-0.7C0.444,-0.68 0.468,-0.651 0.482,-0.613L0.391,-0.566C0.377,-0.588 0.361,-0.605 0.344,-0.615C0.327,-0.626 0.307,-0.631 0.285,-0.631C0.254,-0.631 0.229,-0.623 0.211,-0.606C0.192,-0.59 0.183,-0.568 0.183,-0.541C0.183,-0.498 0.223,-0.458 0.304,-0.421C0.31,-0.418 0.315,-0.416 0.319,-0.414C0.389,-0.382 0.438,-0.35 0.464,-0.319C0.491,-0.288 0.504,-0.249 0.504,-0.202C0.504,-0.134 0.483,-0.081 0.44,-0.041C0.397,-0.001 0.34,0.019 0.267,0.019C0.206,0.019 0.156,0.005 0.117,-0.023C0.079,-0.051 0.053,-0.091 0.041,-0.143Z" style="fill:white;fill-rule:nonzero;"/>
                </g>
                <g transform="matrix(66.6667,0,0,66.6667,508.344,279.13)">
                    <path d="M0.079,-0.715L0.194,-0.715L0.194,-0.281C0.194,-0.216 0.209,-0.168 0.239,-0.135C0.268,-0.103 0.313,-0.087 0.372,-0.087C0.431,-0.087 0.475,-0.103 0.505,-0.135C0.535,-0.168 0.55,-0.216 0.55,-0.281L0.55,-0.715L0.666,-0.715L0.666,-0.27C0.666,-0.173 0.642,-0.101 0.593,-0.053C0.544,-0.005 0.47,0.019 0.372,0.019C0.274,0.019 0.2,-0.005 0.152,-0.053C0.103,-0.101 0.079,-0.173 0.079,-0.27L0.079,-0.715Z" style="fill:white;fill-rule:nonzero;"/>
                </g>
                <g transform="matrix(66.6667,0,0,66.6667,557.954,279.13)">
                    <path d="M0.082,-0L0.082,-0.715L0.198,-0.715L0.198,-0.104L0.458,-0.104L0.458,-0L0.082,-0Z" style="fill:white;fill-rule:nonzero;"/>
                </g>
                <g transform="matrix(66.6667,0,0,66.6667,585.656,279.13)">
                    <path d="M0.313,-0.616L0.313,-0L0.197,-0L0.197,-0.616L0.007,-0.616L0.007,-0.715L0.502,-0.715L0.502,-0.616L0.313,-0.616Z" style="fill:white;fill-rule:nonzero;"/>
                </g>
                <g transform="matrix(66.6667,0,0,66.6667,619.575,279.13)">
                    <rect x="0.084" y="-0.715" width="0.116" height="0.715" style="fill:white;fill-rule:nonzero;"/>
                </g>
                <g transform="matrix(66.6667,0,0,66.6667,638.585,279.13)">
                    <path d="M0.082,-0L0.082,-0.743L0.536,-0.306C0.549,-0.294 0.561,-0.281 0.574,-0.267C0.586,-0.253 0.6,-0.237 0.614,-0.219L0.614,-0.715L0.721,-0.715L0.721,0.028L0.258,-0.417C0.245,-0.429 0.233,-0.442 0.222,-0.455C0.21,-0.468 0.199,-0.482 0.189,-0.497L0.189,-0L0.082,-0Z" style="fill:white;fill-rule:nonzero;"/>
                </g>
                <g transform="matrix(66.6667,0,0,66.6667,692.133,279.13)">
                    <path d="M0.478,-0.366L0.761,-0.366C0.761,-0.361 0.761,-0.354 0.762,-0.346C0.763,-0.323 0.763,-0.307 0.763,-0.299C0.763,-0.198 0.734,-0.12 0.677,-0.064C0.619,-0.009 0.538,0.019 0.433,0.019C0.375,0.019 0.322,0.01 0.276,-0.007C0.23,-0.024 0.19,-0.05 0.156,-0.085C0.122,-0.119 0.096,-0.16 0.078,-0.207C0.06,-0.253 0.051,-0.303 0.051,-0.356C0.051,-0.41 0.06,-0.46 0.078,-0.505C0.097,-0.551 0.124,-0.591 0.16,-0.626C0.195,-0.66 0.236,-0.686 0.283,-0.704C0.33,-0.722 0.38,-0.731 0.433,-0.731C0.489,-0.731 0.54,-0.721 0.584,-0.7C0.629,-0.68 0.668,-0.648 0.703,-0.606L0.618,-0.542C0.594,-0.57 0.567,-0.591 0.537,-0.604C0.506,-0.618 0.472,-0.625 0.435,-0.625C0.358,-0.625 0.294,-0.6 0.245,-0.551C0.196,-0.501 0.172,-0.436 0.172,-0.357C0.172,-0.276 0.196,-0.211 0.245,-0.16C0.294,-0.11 0.358,-0.085 0.436,-0.085C0.502,-0.085 0.555,-0.1 0.593,-0.131C0.631,-0.162 0.65,-0.204 0.65,-0.258L0.65,-0.268L0.478,-0.268L0.478,-0.366Z" style="fill:white;fill-rule:nonzero;"/>
                </g>
            </g>
        </g>
        <g transform="matrix(1,0,0,1,932,0)">
            <g transform="matrix(1,0,0,1,-27.2681,66.1381)">
                <g transform="matrix(26.6667,0,0,26.6667,312.609,279.13)">
                    <path d="M0.16,-0.525C0.16,-0.589 0.218,-0.639 0.309,-0.639C0.381,-0.639 0.446,-0.616 0.511,-0.563L0.557,-0.624C0.486,-0.681 0.413,-0.71 0.311,-0.71C0.178,-0.71 0.081,-0.63 0.081,-0.518C0.081,-0.402 0.155,-0.35 0.316,-0.315C0.463,-0.284 0.498,-0.247 0.498,-0.181C0.498,-0.11 0.436,-0.061 0.342,-0.061C0.245,-0.061 0.175,-0.094 0.102,-0.16L0.053,-0.102C0.137,-0.027 0.228,0.01 0.339,0.01C0.478,0.01 0.578,-0.068 0.578,-0.189C0.578,-0.297 0.506,-0.354 0.35,-0.388C0.196,-0.421 0.16,-0.458 0.16,-0.525Z" style="fill:rgb(3,189,91);fill-rule:nonzero;"/>
                </g>
                <g transform="matrix(26.6667,0,0,26.6667,329.275,279.13)">
                    <path d="M0.364,-0.627L0.599,-0.627L0.599,-0.7L0.049,-0.7L0.049,-0.627L0.284,-0.627L0.284,-0L0.364,-0L0.364,-0.627Z" style="fill:rgb(3,189,91);fill-rule:nonzero;"/>
                </g>
                <g transform="matrix(26.6667,0,0,26.6667,346.555,279.13)">
                    <path d="M0.678,-0L0.463,-0.286C0.573,-0.306 0.653,-0.374 0.653,-0.491C0.653,-0.617 0.554,-0.7 0.4,-0.7L0.099,-0.7L0.099,-0L0.178,-0L0.178,-0.272L0.378,-0.272L0.581,-0L0.678,-0ZM0.573,-0.488C0.573,-0.397 0.498,-0.343 0.393,-0.343L0.178,-0.343L0.178,-0.627L0.394,-0.627C0.507,-0.627 0.573,-0.575 0.573,-0.488Z" style="fill:rgb(3,189,91);fill-rule:nonzero;"/>
                </g>
                <g transform="matrix(26.6667,0,0,26.6667,365.835,279.13)">
                    <path d="M0.432,-0.705L0.358,-0.705L0.039,-0L0.12,-0L0.203,-0.185L0.584,-0.185L0.666,-0L0.751,-0L0.432,-0.705ZM0.553,-0.256L0.234,-0.256L0.394,-0.613L0.553,-0.256Z" style="fill:rgb(3,189,91);fill-rule:nonzero;"/>
                </g>
                <g transform="matrix(26.6667,0,0,26.6667,384.502,279.13)">
                    <path d="M0.364,-0.627L0.599,-0.627L0.599,-0.7L0.049,-0.7L0.049,-0.627L0.284,-0.627L0.284,-0L0.364,-0L0.364,-0.627Z" style="fill:rgb(3,189,91);fill-rule:nonzero;"/>
                </g>
                <g transform="matrix(26.6667,0,0,26.6667,401.782,279.13)">
                    <path d="M0.605,-0.7L0.099,-0.7L0.099,-0L0.61,-0L0.61,-0.072L0.178,-0.072L0.178,-0.317L0.56,-0.317L0.56,-0.389L0.178,-0.389L0.178,-0.628L0.605,-0.628L0.605,-0.7Z" style="fill:rgb(3,189,91);fill-rule:nonzero;"/>
                </g>
                <g transform="matrix(26.6667,0,0,26.6667,419.649,279.13)">
                    <path d="M0.705,-0.095L0.705,-0.374L0.416,-0.374L0.416,-0.303L0.629,-0.303L0.629,-0.129C0.581,-0.09 0.507,-0.059 0.427,-0.059C0.257,-0.059 0.15,-0.183 0.15,-0.351C0.15,-0.508 0.261,-0.639 0.416,-0.639C0.515,-0.639 0.575,-0.606 0.629,-0.559L0.68,-0.619C0.61,-0.678 0.537,-0.712 0.419,-0.712C0.209,-0.712 0.068,-0.542 0.068,-0.349C0.068,-0.148 0.204,0.012 0.424,0.012C0.542,0.012 0.64,-0.037 0.705,-0.095Z" style="fill:rgb(3,189,91);fill-rule:nonzero;"/>
                </g>
                <g transform="matrix(26.6667,0,0,26.6667,439.755,279.13)">
                    <path d="M0.398,-0.278L0.689,-0.7L0.597,-0.7L0.359,-0.35L0.123,-0.7L0.027,-0.7L0.318,-0.277L0.318,-0L0.398,-0L0.398,-0.278Z" style="fill:rgb(3,189,91);fill-rule:nonzero;"/>
                </g>
                <g transform="matrix(26.6667,0,0,26.6667,466.849,279.13)">
                    <path d="M0.37,-0.352C0.37,-0.424 0.311,-0.483 0.239,-0.483C0.167,-0.483 0.108,-0.424 0.108,-0.352C0.108,-0.28 0.167,-0.221 0.239,-0.221C0.311,-0.221 0.37,-0.28 0.37,-0.352Z" style="fill:rgb(3,189,91);fill-rule:nonzero;"/>
                </g>
                <g transform="matrix(26.6667,0,0,26.6667,487.595,279.13)">
                    <path d="M0.331,-0.117L0.131,-0.7L0.045,-0.7L0.295,0.005L0.361,0.005L0.554,-0.563L0.746,0.005L0.813,0.005L1.063,-0.7L0.98,-0.7L0.78,-0.117L0.588,-0.702L0.523,-0.702L0.331,-0.117Z" style="fill:rgb(3,189,91);fill-rule:nonzero;"/>
                </g>
                <g transform="matrix(26.6667,0,0,26.6667,517.115,279.13)">
                    <path d="M0.605,-0.7L0.099,-0.7L0.099,-0L0.61,-0L0.61,-0.072L0.178,-0.072L0.178,-0.317L0.56,-0.317L0.56,-0.389L0.178,-0.389L0.178,-0.628L0.605,-0.628L0.605,-0.7Z" style="fill:rgb(3,189,91);fill-rule:nonzero;"/>
                </g>
                <g transform="matrix(26.6667,0,0,26.6667,534.982,279.13)">
                    <path d="M0.432,-0.705L0.358,-0.705L0.039,-0L0.12,-0L0.203,-0.185L0.584,-0.185L0.666,-0L0.751,-0L0.432,-0.705ZM0.553,-0.256L0.234,-0.256L0.394,-0.613L0.553,-0.256Z" style="fill:rgb(3,189,91);fill-rule:nonzero;"/>
                </g>
                <g transform="matrix(26.6667,0,0,26.6667,556.049,279.13)">
                    <path d="M0.099,-0L0.572,-0L0.572,-0.073L0.178,-0.073L0.178,-0.7L0.099,-0.7L0.099,-0Z" style="fill:rgb(3,189,91);fill-rule:nonzero;"/>
                </g>
                <g transform="matrix(26.6667,0,0,26.6667,569.889,279.13)">
                    <path d="M0.364,-0.627L0.599,-0.627L0.599,-0.7L0.049,-0.7L0.049,-0.627L0.284,-0.627L0.284,-0L0.364,-0L0.364,-0.627Z" style="fill:rgb(3,189,91);fill-rule:nonzero;"/>
                </g>
                <g transform="matrix(26.6667,0,0,26.6667,587.169,279.13)">
                    <path d="M0.582,-0.315L0.582,-0L0.661,-0L0.661,-0.7L0.582,-0.7L0.582,-0.389L0.178,-0.389L0.178,-0.7L0.099,-0.7L0.099,-0L0.178,-0L0.178,-0.315L0.582,-0.315Z" style="fill:rgb(3,189,91);fill-rule:nonzero;"/>
                </g>
                <g transform="matrix(26.6667,0,0,26.6667,615.435,279.13)">
                    <path d="M0.37,-0.352C0.37,-0.424 0.311,-0.483 0.239,-0.483C0.167,-0.483 0.108,-0.424 0.108,-0.352C0.108,-0.28 0.167,-0.221 0.239,-0.221C0.311,-0.221 0.37,-0.28 0.37,-0.352Z" style="fill:rgb(3,189,91);fill-rule:nonzero;"/>
                </g>
                <g transform="matrix(26.6667,0,0,26.6667,636.182,279.13)">
                    <rect x="0.106" y="-0.7" width="0.079" height="0.7" style="fill:rgb(3,189,91);fill-rule:nonzero;"/>
                </g>
                <g transform="matrix(26.6667,0,0,26.6667,643.942,279.13)">
                    <path d="M0.714,-0.351C0.714,-0.549 0.562,-0.7 0.342,-0.7L0.099,-0.7L0.099,-0L0.342,-0C0.562,-0 0.714,-0.153 0.714,-0.351ZM0.632,-0.349C0.632,-0.193 0.519,-0.073 0.342,-0.073L0.178,-0.073L0.178,-0.627L0.342,-0.627C0.519,-0.627 0.632,-0.505 0.632,-0.349Z" style="fill:rgb(3,189,91);fill-rule:nonzero;"/>
                </g>
                <g transform="matrix(26.6667,0,0,26.6667,664.795,279.13)">
                    <path d="M0.605,-0.7L0.099,-0.7L0.099,-0L0.61,-0L0.61,-0.072L0.178,-0.072L0.178,-0.317L0.56,-0.317L0.56,-0.389L0.178,-0.389L0.178,-0.628L0.605,-0.628L0.605,-0.7Z" style="fill:rgb(3,189,91);fill-rule:nonzero;"/>
                </g>
                <g transform="matrix(26.6667,0,0,26.6667,682.662,279.13)">
                    <path d="M0.432,-0.705L0.358,-0.705L0.039,-0L0.12,-0L0.203,-0.185L0.584,-0.185L0.666,-0L0.751,-0L0.432,-0.705ZM0.553,-0.256L0.234,-0.256L0.394,-0.613L0.553,-0.256Z" style="fill:rgb(3,189,91);fill-rule:nonzero;"/>
                </g>
                <g transform="matrix(26.6667,0,0,26.6667,703.355,279.13)">
                    <path d="M0.16,-0.525C0.16,-0.589 0.218,-0.639 0.309,-0.639C0.381,-0.639 0.446,-0.616 0.511,-0.563L0.557,-0.624C0.486,-0.681 0.413,-0.71 0.311,-0.71C0.178,-0.71 0.081,-0.63 0.081,-0.518C0.081,-0.402 0.155,-0.35 0.316,-0.315C0.463,-0.284 0.498,-0.247 0.498,-0.181C0.498,-0.11 0.436,-0.061 0.342,-0.061C0.245,-0.061 0.175,-0.094 0.102,-0.16L0.053,-0.102C0.137,-0.027 0.228,0.01 0.339,0.01C0.478,0.01 0.578,-0.068 0.578,-0.189C0.578,-0.297 0.506,-0.354 0.35,-0.388C0.196,-0.421 0.16,-0.458 0.16,-0.525Z" style="fill:rgb(3,189,91);fill-rule:nonzero;"/>
                </g>
            </g>
        </g>
    </g>
</svg>
